<svg width="300" height="37" viewBox="0 0 300 37" fill="none" xmlns="http://www.w3.org/2000/svg">
<path d="M299.95 33.823C300.244 35.1909 299.211 36.4834 297.825 36.4834H291.054C290.031 36.4834 289.147 35.7639 288.929 34.7551L288.606 33.254C288.388 32.2451 287.504 31.5256 286.481 31.5256H284.036C283.022 31.5256 282.142 32.2336 281.916 33.2318L281.567 34.7773C281.341 35.7755 280.461 36.4834 279.447 36.4834H273.138C271.752 36.4834 270.719 35.1909 271.013 33.823L276.962 6.1422C277.179 5.13272 278.064 4.41253 279.087 4.41253H291.876C292.899 4.41253 293.784 5.13272 294.001 6.1422L299.95 33.823ZM285.273 24.8635C286.393 24.8635 287.237 23.8341 287.027 22.7231L285.421 14.2278C285.41 14.1662 285.356 14.1216 285.294 14.1216C285.232 14.1216 285.179 14.1659 285.167 14.2272L283.521 22.7145C283.305 23.8279 284.149 24.8635 285.273 24.8635Z" fill="#F8695F"/>
<path d="M268.329 34.2035C268.376 35.4482 267.39 36.4834 266.156 36.4834H260.493C259.292 36.4834 258.318 35.5007 258.318 34.2884V21.3456C258.318 21.2634 258.252 21.1968 258.171 21.1968C258.101 21.1968 258.041 21.2463 258.027 21.3152L255.259 34.7357C255.049 35.7538 254.161 36.4834 253.131 36.4834H247.323C246.291 36.4834 245.4 35.75 245.193 34.7285L242.474 21.3156C242.46 21.2464 242.4 21.1968 242.33 21.1968C242.249 21.1968 242.183 21.2633 242.183 21.3453V34.2884C242.183 35.5007 241.21 36.4834 240.009 36.4834H234.456C233.221 36.4834 232.233 35.4459 232.283 34.1998L233.39 6.51908C233.437 5.34217 234.396 4.41253 235.563 4.41253H245.859C246.915 4.41253 247.819 5.17921 248.001 6.22987L250.156 18.6858C250.18 18.8238 250.298 18.9245 250.437 18.9245C250.576 18.9245 250.695 18.8233 250.719 18.6848L252.827 6.23768C253.005 5.18341 253.91 4.41253 254.97 4.41253H265.095C266.264 4.41253 267.223 5.34434 267.268 6.52276L268.329 34.2035Z" fill="#F8695F"/>
<path d="M229.564 33.823C229.858 35.1909 228.826 36.4834 227.439 36.4834H220.668C219.646 36.4834 218.761 35.7639 218.544 34.7551L218.22 33.254C218.003 32.2451 217.118 31.5256 216.096 31.5256H213.651C212.637 31.5256 211.757 32.2336 211.531 33.2318L211.181 34.7773C210.955 35.7755 210.076 36.4834 209.062 36.4834H202.753C201.366 36.4834 200.334 35.1909 200.628 33.823L206.577 6.1422C206.794 5.13272 207.678 4.41253 208.702 4.41253H221.491C222.514 4.41253 223.399 5.13272 223.616 6.1422L229.564 33.823ZM214.888 24.8635C216.008 24.8635 216.852 23.8341 216.642 22.7231L215.036 14.2278C215.024 14.1662 214.971 14.1216 214.909 14.1216C214.847 14.1216 214.794 14.1659 214.782 14.2272L213.135 22.7145C212.919 23.8279 213.764 24.8635 214.888 24.8635Z" fill="#F8695F"/>
<path d="M197.944 34.2035C197.992 35.4482 197.005 36.4834 195.771 36.4834H190.108C188.907 36.4834 187.933 35.5007 187.933 34.2884V21.3456C187.933 21.2634 187.867 21.1968 187.786 21.1968C187.716 21.1968 187.656 21.2463 187.642 21.3152L184.874 34.7357C184.664 35.7538 183.776 36.4834 182.746 36.4834H176.938C175.906 36.4834 175.015 35.75 174.808 34.7285L172.089 21.3156C172.075 21.2464 172.015 21.1968 171.945 21.1968C171.864 21.1968 171.798 21.2633 171.798 21.3453V34.2884C171.798 35.5007 170.825 36.4834 169.624 36.4834H164.071C162.836 36.4834 161.848 35.4459 161.898 34.1998L163.005 6.51908C163.052 5.34217 164.011 4.41253 165.178 4.41253H175.474C176.53 4.41253 177.434 5.17921 177.616 6.22987L179.771 18.6858C179.795 18.8238 179.913 18.9245 180.052 18.9245C180.191 18.9245 180.31 18.8233 180.334 18.6848L182.442 6.23768C182.62 5.18341 183.525 4.41253 184.585 4.41253H194.71C195.879 4.41253 196.838 5.34434 196.883 6.52276L197.944 34.2035Z" fill="#F8695F"/>
<path d="M156.546 4.41253C158.088 4.41253 159.14 5.98694 158.562 7.42981L151.166 25.914C151.061 26.1753 151.007 26.4544 151.007 26.7362V34.2884C151.007 35.5007 150.034 36.4834 148.833 36.4834H141.801C140.601 36.4834 139.627 35.5007 139.627 34.2884V26.6734C139.627 26.3989 139.576 26.1268 139.477 25.8712L132.298 7.40976C131.738 5.96981 132.789 4.41253 134.322 4.41253H141.374C142.409 4.41253 143.301 5.14938 143.505 6.1739L145.473 16.0294C145.491 16.1213 145.571 16.1874 145.664 16.1874C145.757 16.1874 145.838 16.1204 145.855 16.0277L147.729 6.19289C147.926 5.15944 148.822 4.41253 149.865 4.41253H156.546Z" fill="#F8695F"/>
<path d="M129.989 34.4986C129.881 35.6242 128.945 36.4834 127.824 36.4834H110.816C109.616 36.4834 108.642 35.5007 108.642 34.2884V6.60761C108.642 5.3953 109.616 4.41253 110.816 4.41253H128.172C129.449 4.41253 130.451 5.51761 130.338 6.80137L129.975 10.9325C129.876 12.0652 128.936 12.9338 127.809 12.9338H121.994C120.935 12.9338 120.076 13.8009 120.076 14.8704C120.076 15.94 120.935 16.8071 121.994 16.8071H126.396C127.597 16.8071 128.571 17.7899 128.571 19.0022V22.0487C128.571 23.261 127.597 24.2438 126.396 24.2438H122.25C121.049 24.2438 120.076 25.2265 120.076 26.4387C120.076 27.6509 121.049 28.6336 122.25 28.6336H128.154C129.437 28.6336 130.441 29.7494 130.318 31.0388L129.989 34.4986Z" fill="#F8695F"/>
<path d="M104.345 34.2884C104.345 35.5007 103.372 36.4834 102.171 36.4834H94.7462C93.9455 36.4834 93.2095 36.0392 92.8307 35.3271L86.7802 23.9551C86.7394 23.8785 86.6602 23.8307 86.574 23.8307C86.4448 23.8307 86.34 23.9365 86.34 24.0669V34.2884C86.34 35.5007 85.3665 36.4834 84.1657 36.4834H78.363C77.1621 36.4834 76.1887 35.5007 76.1887 34.2884V6.60761C76.1887 5.3953 77.1621 4.41253 78.363 4.41253H86.1026C86.9343 4.41253 87.6931 4.89149 88.0573 5.64633L93.7125 17.3665C93.7455 17.435 93.8144 17.4785 93.8898 17.4785C93.9987 17.4785 94.0871 17.3893 94.0871 17.2793V6.60761C94.0871 5.3953 95.0605 4.41253 96.2614 4.41253H102.171C103.372 4.41253 104.345 5.3953 104.345 6.60761V34.2884Z" fill="#F8695F"/>
<path d="M42.5623 20.2673C42.5623 14.5177 43.7377 10.3517 46.0886 7.7695C48.475 5.1873 52.3753 3.89621 57.7893 3.89621C63.239 3.89621 67.1214 5.17009 69.4366 7.71786C71.7874 10.2656 72.9629 14.4144 72.9629 20.1641C72.9629 25.8793 71.7518 30.1141 69.3298 32.8685C66.9433 35.6228 63.0609 37 57.6824 37C52.3396 37 48.475 35.64 46.0886 32.9201C43.7377 30.2002 42.5623 25.9826 42.5623 20.2673ZM60.7813 14.1217C60.3182 13.2266 59.3209 12.779 57.7893 12.779C56.2577 12.779 55.2782 13.2093 54.8508 14.0701C54.4233 14.9308 54.2096 16.7728 54.2096 19.596V21.8683C54.2096 24.7604 54.4411 26.6368 54.9042 27.4975C55.3672 28.3582 56.3824 28.7886 57.9496 28.7886C59.5168 28.7886 60.4963 28.3755 60.8881 27.5492C61.2799 26.7228 61.4758 24.8809 61.4758 22.0232V19.6476C61.4758 16.8244 61.2443 14.9824 60.7813 14.1217Z" fill="#F8695F"/>
<path d="M39.3811 34.2035C39.4287 35.4482 38.4422 36.4835 37.2083 36.4835H31.5448C30.344 36.4835 29.3705 35.5007 29.3705 34.2884V21.3456C29.3705 21.2634 29.3046 21.1968 29.2232 21.1968C29.1534 21.1968 29.0932 21.2463 29.079 21.3153L26.3115 34.7358C26.1016 35.7538 25.2129 36.4835 24.1828 36.4835H18.3756C17.3428 36.4835 16.4525 35.75 16.2455 34.7285L13.5265 21.3156C13.5124 21.2465 13.4522 21.1968 13.3823 21.1968C13.3011 21.1968 13.2352 21.2633 13.2352 21.3453V34.2884C13.2352 35.5007 12.2618 36.4835 11.0609 36.4835H5.50807C4.27281 36.4835 3.28569 35.4459 3.3355 34.1998L4.44225 6.51909C4.4893 5.34218 5.44807 4.41254 6.61481 4.41254H16.9109C17.9674 4.41254 18.871 5.17922 19.0528 6.22989L21.2082 18.6858C21.232 18.8238 21.3507 18.9245 21.4894 18.9245C21.6286 18.9245 21.7474 18.8233 21.7709 18.6848L23.8789 6.23769C24.0574 5.18342 24.9627 4.41254 26.0221 4.41254H36.1477C37.3159 4.41254 38.2753 5.34436 38.3204 6.52278L39.3811 34.2035Z" fill="#F8695F"/>
<path d="M296.616 29.9268C296.91 31.2947 295.877 32.5873 294.491 32.5873H287.72C286.697 32.5873 285.812 31.8677 285.595 30.8589L285.271 29.3578C285.054 28.349 284.17 27.6294 283.147 27.6294H280.702C279.688 27.6294 278.808 28.3374 278.582 29.3356L278.233 30.8811C278.007 31.8793 277.127 32.5873 276.113 32.5873H269.804C268.417 32.5873 267.385 31.2947 267.679 29.9268L273.628 2.24602C273.845 1.23654 274.73 0.516348 275.753 0.516348H288.542C289.565 0.516348 290.45 1.23654 290.667 2.24602L296.616 29.9268ZM281.939 20.9674C283.059 20.9674 283.903 19.9379 283.693 18.8269L282.087 10.3316C282.076 10.27 282.022 10.2254 281.96 10.2254C281.898 10.2254 281.845 10.2697 281.833 10.331L280.187 18.8183C279.971 19.9318 280.815 20.9674 281.939 20.9674Z" fill="#F8E15D"/>
<path d="M264.995 30.3073C265.043 31.552 264.056 32.5873 262.822 32.5873H257.159C255.958 32.5873 254.984 31.6045 254.984 30.3922V17.4494C254.984 17.3672 254.918 17.3006 254.837 17.3006C254.767 17.3006 254.707 17.3501 254.693 17.4191L251.925 30.8396C251.715 31.8576 250.827 32.5873 249.797 32.5873H243.989C242.957 32.5873 242.066 31.8538 241.859 30.8323L239.14 17.4194C239.126 17.3503 239.066 17.3006 238.996 17.3006C238.915 17.3006 238.849 17.3671 238.849 17.4491V30.3922C238.849 31.6045 237.876 32.5873 236.675 32.5873H231.122C229.887 32.5873 228.899 31.5497 228.949 30.3036L230.056 2.6229C230.103 1.44599 231.062 0.516348 232.229 0.516348H242.525C243.581 0.516348 244.485 1.28303 244.667 2.33369L246.822 14.7897C246.846 14.9276 246.964 15.0283 247.103 15.0283C247.242 15.0283 247.361 14.9271 247.385 14.7886L249.493 2.3415C249.671 1.28723 250.576 0.516348 251.636 0.516348H261.762C262.93 0.516348 263.889 1.44817 263.934 2.62658L264.995 30.3073Z" fill="#F8E15D"/>
<path d="M226.23 29.9268C226.524 31.2947 225.492 32.5873 224.106 32.5873H217.334C216.312 32.5873 215.427 31.8677 215.21 30.8589L214.886 29.3578C214.669 28.349 213.784 27.6294 212.762 27.6294H210.317C209.303 27.6294 208.423 28.3374 208.197 29.3356L207.847 30.8811C207.621 31.8793 206.742 32.5873 205.728 32.5873H199.419C198.032 32.5873 197 31.2947 197.294 29.9268L203.243 2.24602C203.46 1.23654 204.344 0.516348 205.368 0.516348H218.157C219.18 0.516348 220.065 1.23654 220.282 2.24602L226.23 29.9268ZM211.554 20.9674C212.674 20.9674 213.518 19.9379 213.308 18.8269L211.702 10.3316C211.69 10.27 211.637 10.2254 211.575 10.2254C211.513 10.2254 211.46 10.2697 211.448 10.331L209.802 18.8183C209.586 19.9318 210.43 20.9674 211.554 20.9674Z" fill="#F8E15D"/>
<path d="M194.61 30.3073C194.658 31.552 193.671 32.5873 192.437 32.5873H186.774C185.573 32.5873 184.599 31.6045 184.599 30.3922V17.4494C184.599 17.3672 184.533 17.3006 184.452 17.3006C184.382 17.3006 184.322 17.3501 184.308 17.4191L181.54 30.8396C181.331 31.8576 180.442 32.5873 179.412 32.5873H173.605C172.572 32.5873 171.681 31.8538 171.474 30.8323L168.755 17.4194C168.741 17.3503 168.681 17.3006 168.611 17.3006C168.53 17.3006 168.464 17.3671 168.464 17.4491V30.3922C168.464 31.6045 167.491 32.5873 166.29 32.5873H160.737C159.502 32.5873 158.515 31.5497 158.564 30.3036L159.671 2.6229C159.718 1.44599 160.677 0.516348 161.844 0.516348H172.14C173.196 0.516348 174.1 1.28303 174.282 2.33369L176.437 14.7896C176.461 14.9276 176.58 15.0283 176.718 15.0283C176.858 15.0283 176.976 14.9271 177 14.7886L179.108 2.3415C179.286 1.28723 180.192 0.516348 181.251 0.516348H191.377C192.545 0.516348 193.504 1.44817 193.549 2.62658L194.61 30.3073Z" fill="#F8E15D"/>
<path d="M153.212 0.516348C154.753 0.516348 155.805 2.09076 155.228 3.53363L147.831 22.0178C147.727 22.2791 147.673 22.5582 147.673 22.84V30.3922C147.673 31.6045 146.7 32.5873 145.499 32.5873H138.467C137.267 32.5873 136.293 31.6045 136.293 30.3922V22.7772C136.293 22.5027 136.242 22.2306 136.143 21.975L128.964 3.51358C128.404 2.07363 129.455 0.516348 130.987 0.516348H138.039C139.075 0.516348 139.966 1.2532 140.171 2.27772L142.139 12.1333C142.157 12.2251 142.237 12.2912 142.33 12.2912C142.423 12.2912 142.503 12.2242 142.521 12.1316L144.395 2.29672C144.592 1.26327 145.488 0.516348 146.531 0.516348H153.212Z" fill="#F8E15D"/>
<path d="M126.655 30.6024C126.547 31.7281 125.61 32.5873 124.49 32.5873H107.482C106.281 32.5873 105.308 31.6045 105.308 30.3922V2.71143C105.308 1.49912 106.281 0.516348 107.482 0.516348H124.838C126.115 0.516348 127.116 1.62143 127.004 2.90519L126.641 7.03629C126.542 8.16907 125.602 9.03761 124.475 9.03761H118.66C117.6 9.03761 116.742 9.90467 116.742 10.9743C116.742 12.0438 117.6 12.9109 118.66 12.9109H123.062C124.263 12.9109 125.237 13.8937 125.237 15.106V18.1526C125.237 19.3649 124.263 20.3476 123.062 20.3476H118.916C117.715 20.3476 116.742 21.3303 116.742 22.5425C116.742 23.7547 117.715 24.7374 118.916 24.7374H124.82C126.103 24.7374 127.107 25.8532 126.984 27.1426L126.655 30.6024Z" fill="#F8E15D"/>
<path d="M101.011 30.3922C101.011 31.6045 100.038 32.5873 98.8371 32.5873H91.4124C90.6116 32.5873 89.8757 32.143 89.4969 31.4309L83.4464 20.059C83.4056 19.9823 83.3264 19.9345 83.2402 19.9345C83.111 19.9345 83.0062 20.0403 83.0062 20.1708V30.3922C83.0062 31.6045 82.0327 32.5873 80.8319 32.5873H75.0292C73.8283 32.5873 72.8549 31.6045 72.8549 30.3922V2.71143C72.8549 1.49912 73.8283 0.516348 75.0292 0.516348H82.7688C83.6004 0.516348 84.3593 0.995309 84.7235 1.75015L90.3787 13.4704C90.4117 13.5388 90.4806 13.5823 90.556 13.5823C90.6649 13.5823 90.7533 13.4931 90.7533 13.3831V2.71143C90.7533 1.49912 91.7267 0.516348 92.9276 0.516348H98.8371C100.038 0.516348 101.011 1.49912 101.011 2.71143V30.3922Z" fill="#F8E15D"/>
<path d="M39.2285 16.3711C39.2285 10.6214 40.4039 6.4555 42.7547 3.8733C45.1412 1.2911 49.0414 0 54.4554 0C59.9051 0 63.7875 1.27388 66.1028 3.82165C68.4536 6.36942 69.629 10.5182 69.629 16.2679C69.629 21.9831 68.418 26.2179 65.9959 28.9723C63.6094 31.7266 59.727 33.1038 54.3486 33.1038C49.0058 33.1038 45.1412 31.7438 42.7547 29.0239C40.4039 26.304 39.2285 22.0864 39.2285 16.3711ZM57.4474 10.2255C56.9844 9.33035 55.987 8.88276 54.4554 8.88276C52.9238 8.88276 51.9443 9.31313 51.5169 10.1739C51.0895 11.0346 50.8758 12.8766 50.8758 15.6998V17.9721C50.8758 20.8642 51.1073 22.7406 51.5703 23.6013C52.0334 24.462 53.0485 24.8924 54.6157 24.8924C56.1829 24.8924 57.1625 24.4792 57.5543 23.6529C57.9461 22.8266 58.142 20.9847 58.142 18.127V15.7514C58.142 12.9282 57.9105 11.0862 57.4474 10.2255Z" fill="#F8E15D"/>
<path d="M36.0474 30.3073C36.095 31.552 35.1085 32.5873 33.8746 32.5873H28.2111C27.0103 32.5873 26.0368 31.6045 26.0368 30.3922V17.4494C26.0368 17.3672 25.9709 17.3006 25.8895 17.3006C25.8197 17.3006 25.7595 17.3501 25.7453 17.4191L22.9778 30.8396C22.7679 31.8576 21.8792 32.5873 20.8491 32.5873H15.0419C14.0091 32.5873 13.1188 31.8538 12.9118 30.8323L10.1928 17.4194C10.1787 17.3503 10.1185 17.3006 10.0486 17.3006C9.9674 17.3006 9.90155 17.3671 9.90155 17.4491V30.3922C9.90155 31.6045 8.92806 32.5873 7.72721 32.5873H2.17437C0.939116 32.5873 -0.0480128 31.5497 0.00180621 30.3036L1.10855 2.6229C1.15561 1.44599 2.11438 0.516348 3.28111 0.516348H13.5772C14.6337 0.516348 15.5373 1.28303 15.7191 2.33369L17.8745 14.7896C17.8983 14.9276 18.017 15.0283 18.1557 15.0283C18.2949 15.0283 18.4137 14.9271 18.4372 14.7886L20.5452 2.3415C20.7237 1.28723 21.629 0.516348 22.6884 0.516348H32.814C33.9822 0.516348 34.9416 1.44817 34.9867 2.62658L36.0474 30.3073Z" fill="#F8E15D"/>
</svg>
