<svg width="297" height="33" viewBox="0 0 297 33" fill="none" xmlns="http://www.w3.org/2000/svg">
<path d="M295.621 27.5034C296.162 29.9961 294.263 32.3514 291.712 32.3514H287.984C286.52 32.3514 285.254 31.3313 284.943 29.901C284.631 28.4706 283.365 27.4505 281.902 27.4505H281.005C279.534 27.4505 278.259 28.4673 277.931 29.901C277.604 31.3347 276.328 32.3514 274.858 32.3514H271.615C269.064 32.3514 267.165 29.9961 267.706 27.5033L272.848 3.80022C273.248 1.96069 274.875 0.648315 276.758 0.648315H286.569C288.452 0.648315 290.079 1.96069 290.479 3.80022L295.621 27.5034ZM281.456 20.8648C282.574 20.8648 283.415 19.8471 283.206 18.7489L281.604 10.3511C281.592 10.2901 281.539 10.246 281.477 10.246C281.415 10.246 281.362 10.2898 281.35 10.3504L279.707 18.7404C279.491 19.8411 280.334 20.8648 281.456 20.8648Z" fill="#F8695F"/>
<path d="M264.472 28.1968C264.56 30.4649 262.745 32.3514 260.475 32.3514H258.556C256.346 32.3514 254.556 30.5606 254.556 28.3514V17.3872C254.556 17.306 254.49 17.2401 254.409 17.2401C254.339 17.2401 254.279 17.289 254.265 17.3572L251.806 29.1667C251.42 31.0218 249.785 32.3514 247.89 32.3514H245.077C243.177 32.3514 241.539 31.0149 241.158 29.1534L238.744 17.3575C238.73 17.2892 238.67 17.2401 238.6 17.2401C238.519 17.2401 238.453 17.3059 238.453 17.3869V28.3514C238.453 30.5606 236.662 32.3514 234.453 32.3514H232.647C230.375 32.3514 228.559 30.4607 228.65 28.1901L229.607 4.48699C229.694 2.34236 231.458 0.648315 233.604 0.648315H240.583C242.527 0.648315 244.189 2.0454 244.524 3.95998L246.41 14.7579C246.434 14.8943 246.552 14.9939 246.691 14.9939C246.829 14.9939 246.948 14.8938 246.971 14.7569L248.815 3.9742C249.143 2.05305 250.809 0.648315 252.758 0.648315H259.558C261.707 0.648315 263.472 2.34633 263.555 4.4937L264.472 28.1968Z" fill="#F8695F"/>
<path d="M225.379 27.5034C225.92 29.9961 224.021 32.3514 221.47 32.3514H217.741C216.278 32.3514 215.012 31.3313 214.7 29.901C214.389 28.4706 213.123 27.4505 211.659 27.4505H210.762C209.292 27.4505 208.017 28.4673 207.689 29.901C207.361 31.3347 206.086 32.3514 204.615 32.3514H201.373C198.822 32.3514 196.923 29.9961 197.464 27.5034L202.606 3.80022C203.005 1.96069 204.633 0.648315 206.515 0.648315H216.327C218.21 0.648315 219.837 1.96069 220.236 3.80022L225.379 27.5034ZM211.213 20.8648C212.331 20.8648 213.173 19.8471 212.964 18.7489L211.361 10.3511C211.35 10.2901 211.296 10.246 211.234 10.246C211.173 10.246 211.119 10.2898 211.108 10.3504L209.465 18.7404C209.249 19.8411 210.092 20.8648 211.213 20.8648Z" fill="#F8695F"/>
<path d="M194.23 28.1968C194.318 30.4649 192.503 32.3514 190.233 32.3514H188.314C186.105 32.3514 184.314 30.5606 184.314 28.3514V17.3872C184.314 17.306 184.248 17.2401 184.167 17.2401C184.097 17.2401 184.037 17.289 184.023 17.3572L181.564 29.1667C181.178 31.0218 179.543 32.3514 177.648 32.3514H174.835C172.935 32.3514 171.297 31.0149 170.916 29.1534L168.502 17.3575C168.488 17.2892 168.428 17.2401 168.358 17.2401C168.277 17.2401 168.211 17.3059 168.211 17.3869V28.3514C168.211 30.5606 166.42 32.3514 164.211 32.3514H162.405C160.133 32.3514 158.317 30.4607 158.409 28.1901L159.365 4.48699C159.452 2.34236 161.216 0.648315 163.362 0.648315H170.341C172.285 0.648315 173.947 2.0454 174.282 3.95998L176.168 14.7579C176.192 14.8943 176.31 14.9939 176.449 14.9939C176.588 14.9939 176.706 14.8938 176.73 14.7569L178.573 3.97421C178.902 2.05306 180.567 0.648315 182.516 0.648315H189.317C191.465 0.648315 193.23 2.34633 193.314 4.4937L194.23 28.1968Z" fill="#F8695F"/>
<path d="M150.277 0.648315C153.113 0.648315 155.048 3.5173 153.986 6.14657L147.754 21.5734C147.562 22.0495 147.463 22.5582 147.463 23.0717V28.3514C147.463 30.5606 145.672 32.3514 143.463 32.3514H140.106C137.897 32.3514 136.106 30.5606 136.106 28.3514V23.0002C136.106 22.5 136.012 22.0042 135.829 21.5385L129.772 6.11004C128.742 3.48608 130.677 0.648315 133.496 0.648315H136.351C138.255 0.648315 139.896 1.99106 140.272 3.85799L141.94 12.132C141.958 12.2228 142.038 12.2881 142.13 12.2881C142.223 12.2881 142.304 12.2219 142.321 12.1303L143.906 3.8926C144.268 2.00939 145.916 0.648315 147.834 0.648315H150.277Z" fill="#F8695F"/>
<path d="M126.636 28.843C126.444 30.8328 124.773 32.3514 122.774 32.3514H109.184C106.975 32.3514 105.184 30.5606 105.184 28.3514V4.64832C105.184 2.43918 106.975 0.648315 109.184 0.648315H122.675C125.023 0.648315 126.866 2.66206 126.659 5.0014L126.621 5.42494C126.439 7.48915 124.709 9.07185 122.637 9.07185H118.509C117.451 9.07185 116.594 9.92898 116.594 10.9863C116.594 12.0436 117.451 12.9007 118.509 12.9007H121.396C123.426 12.9007 125.072 14.5464 125.072 16.5765C125.072 18.6065 123.426 20.2522 121.396 20.2522H118.764C117.566 20.2522 116.594 21.2236 116.594 22.4219C116.594 23.6202 117.566 24.5916 118.764 24.5916H122.774C125.063 24.5916 126.855 26.5639 126.636 28.843Z" fill="#F8695F"/>
<path d="M100.896 28.3514C100.896 30.5606 99.105 32.3514 96.8958 32.3514H92.4106C90.9376 32.3514 89.5838 31.5419 88.8868 30.2442L83.3665 19.9668C83.3258 19.891 83.2468 19.8438 83.1608 19.8438C83.0318 19.8438 82.9272 19.9483 82.9272 20.0773V28.3514C82.9272 30.5606 81.1363 32.3514 78.9272 32.3514H76.7965C74.5874 32.3514 72.7965 30.5606 72.7965 28.3514V4.64832C72.7965 2.43918 74.5874 0.648315 76.7965 0.648315H81.546C83.0761 0.648315 84.4721 1.5211 85.1421 2.89661L90.2847 13.4538C90.3177 13.5215 90.3864 13.5644 90.4617 13.5644C90.5704 13.5644 90.6585 13.4763 90.6585 13.3676V4.64832C90.6585 2.43918 92.4494 0.648315 94.6585 0.648315H96.8958C99.1049 0.648315 100.896 2.43918 100.896 4.64832V28.3514Z" fill="#F8695F"/>
<path d="M39.2379 16.3213C39.2379 10.6376 40.4109 6.51941 42.757 3.96682C45.1386 1.41423 49.0309 0.137939 54.4339 0.137939C59.8725 0.137939 63.747 1.39721 66.0575 3.91577C68.4036 6.43432 69.5766 10.5355 69.5766 16.2192C69.5766 21.869 68.3681 26.0552 65.9509 28.778C63.5693 31.5007 59.6948 32.8621 54.3273 32.8621C48.9954 32.8621 45.1386 31.5177 42.757 28.829C40.4109 26.1403 39.2379 21.9711 39.2379 16.3213ZM57.4198 10.2462C56.9577 9.36129 55.9624 8.91884 54.4339 8.91884C52.9054 8.91884 51.9279 9.34427 51.5014 10.1951C51.0748 11.046 50.8615 12.8668 50.8615 15.6577V17.9039C50.8615 20.7628 51.0926 22.6177 51.5547 23.4686C52.0168 24.3195 53.0299 24.7449 54.5939 24.7449C56.1579 24.7449 57.1354 24.3365 57.5265 23.5196C57.9175 22.7028 58.113 20.882 58.113 18.0571V15.7087C58.113 12.9179 57.8819 11.097 57.4198 10.2462Z" fill="#F8695F"/>
<path d="M35.9896 28.1968C36.0773 30.4649 34.2623 32.3514 31.9926 32.3514H30.0729C27.8638 32.3514 26.0729 30.5606 26.0729 28.3514V17.3872C26.0729 17.306 26.0071 17.2401 25.9259 17.2401C25.8562 17.2401 25.7962 17.289 25.782 17.3572L23.3235 29.1667C22.9373 31.0218 21.3024 32.3514 19.4074 32.3514H16.5939C14.6939 32.3514 13.0561 31.0149 12.6751 29.1534L10.2611 17.3575C10.2471 17.2892 10.187 17.2401 10.1173 17.2401C10.0362 17.2401 9.97048 17.3059 9.97048 17.3869V28.3514C9.97048 30.5606 8.17961 32.3514 5.97048 32.3514H4.16447C1.89204 32.3514 0.076074 30.4607 0.167723 28.1901L1.12448 4.48699C1.21104 2.34236 2.97484 0.648315 5.12122 0.648315H12.1006C14.0441 0.648315 15.7064 2.0454 16.0409 3.95998L17.9272 14.7579C17.951 14.8943 18.0694 14.9939 18.2079 14.9939C18.3467 14.9939 18.4654 14.8938 18.4888 14.7569L20.3323 3.97421C20.6608 2.05306 22.3261 0.648315 24.2751 0.648315H31.0757C33.2247 0.648315 34.9896 2.34633 35.0727 4.4937L35.9896 28.1968Z" fill="#F8695F"/>
</svg>
